<svg width="121" height="22" viewBox="0 0 121 22" fill="none" xmlns="http://www.w3.org/2000/svg">
<g clip-path="url(#clip0_30802_57877)">
<path d="M52.957 0.0605469V22.0002H49.1401V12.4141H37.7836V22.002H33.9667V0.0605469H37.7836V8.97175H49.1401V0.0605469H52.957Z" fill="black"/>
<path d="M68.2905 8.69557C73.253 8.69557 76.0522 11.1538 76.0522 15.3332C76.0522 19.5127 73.253 22.002 68.2905 22.002H58.0796V0.0605469H74.1748V3.40957H61.8965V8.69557H68.2905ZM67.6227 18.7426C71.0257 18.7426 72.2034 17.4513 72.2034 15.24C72.2034 13.0579 70.9637 11.7684 67.6227 11.7684H61.8965V18.7445H67.6227V18.7426Z" fill="black"/>
<path d="M79.8125 0.0605469H83.6294V9.03394H89.7695L94.1281 0.0605469H98.0729L92.9825 10.724L98.3589 22.002H94.4141L89.7695 12.383H83.6294V22.0002H79.8125V0.0605469Z" fill="black"/>
<path d="M105.445 0.0605469V17.1459H106.209L115.592 0.0605469H121V22.0002H117.373V4.91489H116.61L107.226 22.0002H101.818V0.0605469H105.445Z" fill="black"/>
<path d="M4.13862 16.7844C4.96821 16.7844 5.64355 17.4319 5.64355 18.2293C5.64355 19.0268 4.96821 19.6743 4.13862 19.6743C3.30903 19.6743 2.63369 19.0268 2.63369 18.2293C2.63369 17.4337 3.30903 16.7844 4.13862 16.7844ZM4.13862 16.0527C2.89141 16.0527 1.88123 17.0276 1.88123 18.2293C1.88123 19.431 2.89141 20.4059 4.13862 20.4059C5.38583 20.4059 6.39601 19.431 6.39601 18.2293C6.39601 17.0276 5.38583 16.0527 4.13862 16.0527Z" fill="#4563FF"/>
<path d="M7.71289 21.9488H15.2375V0H7.71289V21.9488ZM11.4752 20.4855C10.228 20.4855 9.21782 19.5033 9.21782 18.2907C9.21782 17.078 10.228 16.0958 11.4752 16.0958C12.7224 16.0958 13.7326 17.078 13.7326 18.2907C13.7326 19.5033 12.7224 20.4855 11.4752 20.4855Z" fill="#4563FF"/>
<path d="M20.8809 0H15.2374V21.9488H20.8809C21.9193 21.9488 22.7621 21.1294 22.7621 20.1197V1.82907C22.7621 0.819421 21.9193 0 20.8809 0ZM18.9997 20.4855C17.7525 20.4855 16.7424 19.5033 16.7424 18.2907C16.7424 17.078 17.7525 16.0958 18.9997 16.0958C20.247 16.0958 21.2571 17.078 21.2571 18.2907C21.2571 19.5033 20.247 20.4855 18.9997 20.4855Z" fill="#FF0029"/>
<path d="M8.08899 0.731626V21.2172H1.88116C1.2585 21.2172 0.752464 20.7251 0.752464 20.1197V1.82907C0.752464 1.22364 1.2585 0.731626 1.88116 0.731626H8.08899ZM8.84145 0H1.88116C0.84276 0 0 0.819421 0 1.82907V20.1197C0 21.1294 0.84276 21.9488 1.88116 21.9488H8.84145V0Z" fill="#4563FF"/>
</g>
<defs>
<clipPath id="clip0_30802_57877">
<rect width="121" height="22" fill="white"/>
</clipPath>
</defs>
</svg>
